<mxfile host="app.diagrams.net" modified="2022-11-20T23:05:29.706Z" agent="5.0 (Windows NT 10.0; Win64; x64) AppleWebKit/537.36 (KHTML, like Gecko) Chrome/107.0.0.0 Safari/537.36" etag="BXsVqA5qkgIf0-D1ORxC" version="20.5.3" type="github">
  <diagram id="0dBuIqj76AondTTtISzp" name="PÃ¡gina-1">
    <mxGraphModel dx="1422" dy="762" grid="1" gridSize="10" guides="1" tooltips="1" connect="1" arrows="1" fold="1" page="1" pageScale="1" pageWidth="827" pageHeight="1169" math="0" shadow="0">
      <root>
        <mxCell id="0" />
        <mxCell id="1" parent="0" />
        <mxCell id="6obno0GaThmGZOT__fC_-1" value="GuestsViewModel" style="swimlane;whiteSpace=wrap;html=1;" vertex="1" parent="1">
          <mxGeometry x="90" y="190" width="380" height="230" as="geometry" />
        </mxCell>
        <mxCell id="6obno0GaThmGZOT__fC_-2" value="- repository: GuestRepository" style="text;html=1;strokeColor=none;fillColor=none;align=center;verticalAlign=middle;whiteSpace=wrap;rounded=0;" vertex="1" parent="6obno0GaThmGZOT__fC_-1">
          <mxGeometry y="30" width="180" height="30" as="geometry" />
        </mxCell>
        <mxCell id="6obno0GaThmGZOT__fC_-3" value="- _listAllGuests: MutableLiveData&amp;lt;List&amp;lt;GuestModel&amp;gt;&amp;gt;" style="text;html=1;strokeColor=none;fillColor=none;align=center;verticalAlign=middle;whiteSpace=wrap;rounded=0;" vertex="1" parent="6obno0GaThmGZOT__fC_-1">
          <mxGeometry y="50" width="310" height="30" as="geometry" />
        </mxCell>
        <mxCell id="6obno0GaThmGZOT__fC_-4" value="+ listAllGuests:LiveData&amp;lt;List&amp;lt;GuestModel&amp;gt;&amp;gt;" style="text;html=1;strokeColor=none;fillColor=none;align=center;verticalAlign=middle;whiteSpace=wrap;rounded=0;" vertex="1" parent="6obno0GaThmGZOT__fC_-1">
          <mxGeometry x="-10" y="70" width="280" height="30" as="geometry" />
        </mxCell>
        <mxCell id="6obno0GaThmGZOT__fC_-6" value="+ getAll()" style="text;html=1;strokeColor=none;fillColor=none;align=center;verticalAlign=middle;whiteSpace=wrap;rounded=0;" vertex="1" parent="6obno0GaThmGZOT__fC_-1">
          <mxGeometry x="10" y="110" width="60" height="30" as="geometry" />
        </mxCell>
        <mxCell id="6obno0GaThmGZOT__fC_-7" value="+ getAbsent()" style="text;html=1;strokeColor=none;fillColor=none;align=center;verticalAlign=middle;whiteSpace=wrap;rounded=0;" vertex="1" parent="6obno0GaThmGZOT__fC_-1">
          <mxGeometry x="10" y="140" width="80" height="30" as="geometry" />
        </mxCell>
        <mxCell id="6obno0GaThmGZOT__fC_-8" value="+ getPresent()" style="text;html=1;strokeColor=none;fillColor=none;align=center;verticalAlign=middle;whiteSpace=wrap;rounded=0;" vertex="1" parent="6obno0GaThmGZOT__fC_-1">
          <mxGeometry x="10" y="170" width="80" height="30" as="geometry" />
        </mxCell>
        <mxCell id="6obno0GaThmGZOT__fC_-9" value="+ delete(id: int)" style="text;html=1;strokeColor=none;fillColor=none;align=center;verticalAlign=middle;whiteSpace=wrap;rounded=0;" vertex="1" parent="6obno0GaThmGZOT__fC_-1">
          <mxGeometry x="10" y="200" width="90" height="30" as="geometry" />
        </mxCell>
        <mxCell id="6obno0GaThmGZOT__fC_-5" value="" style="endArrow=none;html=1;rounded=0;exitX=0.037;exitY=1;exitDx=0;exitDy=0;exitPerimeter=0;" edge="1" parent="1" source="6obno0GaThmGZOT__fC_-4">
          <mxGeometry width="50" height="50" relative="1" as="geometry">
            <mxPoint x="230" y="350" as="sourcePoint" />
            <mxPoint x="470" y="290" as="targetPoint" />
          </mxGeometry>
        </mxCell>
      </root>
    </mxGraphModel>
  </diagram>
</mxfile>
